<svg height="410pt" viewBox="-7 0 410 410.5" width="410pt" xmlns="http://www.w3.org/2000/svg"><path d="m344.050781 287.898438-57.5 29.101562c-8.304687-14.71875-23.902343-23.816406-40.800781-23.800781h-53.5c-8.542969-.046875-16.972656-1.957031-24.699219-5.597657l-5.5-2.703124c-27.996093-13.585938-60.851562-12.730469-88.101562 2.300781v-19.5h-73.699219v142.800781h73.699219v-14l14.199219-8.101562c5.972656-3.414063 13.03125-4.382813 19.703124-2.699219l91.699219 23 .5.101562c5.710938 1 11.5 1.5 17.300781 1.5 15.082032.019531 29.96875-3.433593 43.5-10.101562l.398438-.199219 135.398438-93-3.398438-5.601562c-10.1875-16.882813-31.820312-22.816407-49.199219-13.5zm-329.800781 108.703124v-114.800781h45.699219v106.699219l-.5.300781.5.800781v7zm239.898438-8.601562c-15.949219 7.738281-33.933594 10.257812-51.398438 7.199219l-91.398438-23c-10.1875-2.578125-20.976562-1.109375-30.101562 4.101562l-7.300781 4.199219v-76.800781c24.246093-16.636719 55.5625-18.96875 82-6.097657l5.5 2.699219c9.582031 4.597657 20.074219 6.988281 30.699219 7h53.5c15.402343.023438 28.710937 10.753907 32 25.800781h-80.199219v14h95v-7c-.023438-3.292968-.359375-6.574218-1-9.800781l58.902343-29.800781.199219-.101562c8.628907-4.679688 19.28125-3.351563 26.5 3.300781zm0 0"/><path d="m184.648438 264c72.902343 0 132-59.097656 132-132s-59.097657-132-132-132c-72.898438 0-132 59.097656-132 132 .074218 72.871094 59.128906 131.929688 132 132zm7-16.898438v-64.902343c15.800781.894531 31.253906 5.011719 45.402343 12.101562-9.800781 22.800781-25.300781 41.097657-45.402343 52.800781zm0-79v-29.101562h57.203124c-.46875 14.242188-2.785156 28.359375-6.902343 42-15.742188-7.59375-32.84375-11.980469-50.300781-12.898438zm0-43.101562v-29.101562c17.429687-.90625 34.496093-5.292969 50.203124-12.898438 4.160157 13.628906 6.480469 27.753906 6.898438 42zm0-43.101562v-65c20.101562 11.601562 35.601562 29.902343 45.402343 52.800781-14.144531 7.121093-29.59375 11.273437-45.402343 12.199219zm-14-65v64.902343c-15.808594-.886719-31.28125-4.933593-45.5-11.902343 9.800781-22.898438 25.300781-41.296876 45.5-53zm0 79v29.101562h-57.199219c.472656-14.175781 2.792969-28.226562 6.902343-41.800781 15.769532 7.496093 32.859376 11.8125 50.296876 12.699219zm0 43.101562v29.101562c-17.4375.886719-34.527344 5.203126-50.296876 12.699219-4.109374-13.574219-6.429687-27.625-6.902343-41.800781zm0 43.101562v64.898438c-20.199219-11.601562-35.699219-30-45.5-53 14.253906-6.875 29.707031-10.917969 45.5-11.898438zm-26.296876 63.097657c-18.789062-5.558594-35.898437-15.695313-49.800781-29.5 5.589844-5.53125 11.71875-10.492188 18.300781-14.800781 7.253907 16.824218 17.988282 31.921874 31.5 44.300781zm97.898438-44c6.535156 4.285156 12.601562 9.246093 18.101562 14.800781-13.851562 13.652344-30.851562 23.683594-49.5 29.199219 13.5-12.242188 24.210938-27.25 31.398438-44zm5.101562-13.300781c5.164063-15.804688 8.027344-32.273438 8.5-48.898438h39.597657c-1.425781 24.316406-10.371094 47.589844-25.597657 66.601562-6.835937-6.699218-14.382812-12.636718-22.5-17.703124zm8.5-62.898438c-.472656-16.625-3.335937-33.09375-8.5-48.898438 8.085938-5.070312 15.597657-11.003906 22.398438-17.703124 15.269531 18.988281 24.21875 42.277343 25.601562 66.601562zm-13.601562-62.199219c-7.214844-16.734375-17.921875-31.738281-31.398438-44 18.648438 5.515625 35.648438 15.546875 49.5 29.199219-5.523437 5.527344-11.589843 10.484375-18.101562 14.800781zm-129.300781.199219c-6.597657-4.28125-12.730469-9.242188-18.300781-14.800781 13.902343-13.804688 31.015624-23.941407 49.800781-29.5-13.523438 12.363281-24.261719 27.464843-31.5 44.300781zm-5.097657 13.398438c-5.078124 15.726562-7.90625 32.085937-8.402343 48.601562h-39.597657c1.4375-24.1875 10.308594-47.34375 25.398438-66.300781 6.824219 6.753906 14.40625 12.695312 22.601562 17.699219zm-8.402343 62.601562c.488281 16.515625 3.316406 32.878906 8.402343 48.601562-8.175781 5.03125-15.757812 10.96875-22.601562 17.699219-15.082031-18.964843-23.949219-42.113281-25.398438-66.300781zm0 0"/></svg>